<?xml version="1.0" encoding="UTF-8" standalone="no"?>
<svg
   xmlns:dc="http://purl.org/dc/elements/1.1/"
   xmlns:cc="http://creativecommons.org/ns#"
   xmlns:rdf="http://www.w3.org/1999/02/22-rdf-syntax-ns#"
   xmlns:svg="http://www.w3.org/2000/svg"
   xmlns="http://www.w3.org/2000/svg"
   xmlns:xlink="http://www.w3.org/1999/xlink"
   xmlns:sodipodi="http://sodipodi.sourceforge.net/DTD/sodipodi-0.dtd"
   xmlns:inkscape="http://www.inkscape.org/namespaces/inkscape"
   viewBox="0 0 448 512"
   version="1.1"
   id="svg1819"
   sodipodi:docname="instagram-square.svg"
   inkscape:version="1.0.1 (c497b03c, 2020-09-10)">
  <metadata
     id="metadata1825">
    <rdf:RDF>
      <cc:Work
         rdf:about="">
        <dc:format>image/svg+xml</dc:format>
        <dc:type
           rdf:resource="http://purl.org/dc/dcmitype/StillImage" />
      </cc:Work>
    </rdf:RDF>
  </metadata>
  <defs
     id="defs1823">
    <linearGradient
       inkscape:collect="always"
       id="linearGradient2542">
      <stop
         style="stop-color:#800080;stop-opacity:1"
         offset="0"
         id="stop2538" />
      <stop
         style="stop-color:#ff0000;stop-opacity:1"
         offset="1"
         id="stop2540" />
    </linearGradient>
    <linearGradient
       inkscape:collect="always"
       id="linearGradient2528">
      <stop
         style="stop-color:#ffffff;stop-opacity:1;"
         offset="0"
         id="stop2524" />
      <stop
         style="stop-color:#d40000;stop-opacity:1"
         offset="1"
         id="stop2526" />
    </linearGradient>
    <linearGradient
       inkscape:collect="always"
       id="linearGradient2458">
      <stop
         style="stop-color:#ffffff;stop-opacity:1;"
         offset="0"
         id="stop2454" />
      <stop
         style="stop-color:#ffffff;stop-opacity:0;"
         offset="1"
         id="stop2456" />
    </linearGradient>
    <linearGradient
       inkscape:collect="always"
       id="linearGradient2432">
      <stop
         style="stop-color:#ffffff;stop-opacity:1;"
         offset="0"
         id="stop2428" />
      <stop
         style="stop-color:#ffffff;stop-opacity:0;"
         offset="1"
         id="stop2430" />
    </linearGradient>
    <linearGradient
       inkscape:collect="always"
       id="linearGradient2410">
      <stop
         style="stop-color:#000000;stop-opacity:1;"
         offset="0"
         id="stop2406" />
      <stop
         style="stop-color:#000000;stop-opacity:0;"
         offset="1"
         id="stop2408" />
    </linearGradient>
    <radialGradient
       inkscape:collect="always"
       xlink:href="#linearGradient2410"
       id="radialGradient2412"
       cx="292.24033"
       cy="155.39388"
       fx="292.24033"
       fy="155.39388"
       r="18.574251"
       gradientTransform="matrix(2.162673,1.7924544,-0.64121793,0.77365691,-240.13859,-488.72881)"
       gradientUnits="userSpaceOnUse" />
    <linearGradient
       inkscape:collect="always"
       xlink:href="#linearGradient2432"
       id="linearGradient2434"
       x1="8.9982424"
       y1="44.991211"
       x2="-2.6994727"
       y2="39.592266"
       gradientUnits="userSpaceOnUse" />
    <linearGradient
       inkscape:collect="always"
       xlink:href="#linearGradient2410"
       id="linearGradient2444"
       x1="68.386642"
       y1="98.080841"
       x2="380.62567"
       y2="408.5202"
       gradientUnits="userSpaceOnUse" />
    <linearGradient
       inkscape:collect="always"
       xlink:href="#linearGradient2458"
       id="linearGradient2452"
       x1="290.33061"
       y1="170.6096"
       x2="328.33993"
       y2="170.6096"
       gradientUnits="userSpaceOnUse" />
    <linearGradient
       inkscape:collect="always"
       xlink:href="#linearGradient2528"
       id="linearGradient2522"
       x1="419.31808"
       y1="454.41125"
       x2="140.37259"
       y2="176.36555"
       gradientUnits="userSpaceOnUse" />
    <linearGradient
       inkscape:collect="always"
       xlink:href="#linearGradient2542"
       id="linearGradient2536"
       x1="357.23022"
       y1="213.25835"
       x2="288.8436"
       y2="150.27065"
       gradientUnits="userSpaceOnUse" />
  </defs>
  <sodipodi:namedview
     pagecolor="#ffffff"
     bordercolor="#666666"
     borderopacity="1"
     objecttolerance="10"
     gridtolerance="10"
     guidetolerance="10"
     inkscape:pageopacity="0"
     inkscape:pageshadow="2"
     inkscape:window-width="1186"
     inkscape:window-height="859"
     id="namedview1821"
     showgrid="false"
     inkscape:zoom="1.1113281"
     inkscape:cx="240.4102"
     inkscape:cy="256"
     inkscape:window-x="0"
     inkscape:window-y="23"
     inkscape:window-maximized="0"
     inkscape:current-layer="svg1819" />
  <!-- Font Awesome Free 5.15.2 by @fontawesome - https://fontawesome.com License - https://fontawesome.com/license/free (Icons: CC BY 4.0, Fonts: SIL OFL 1.1, Code: MIT License) -->
  <path
     d="M224,202.66A53.34,53.34,0,1,0,277.36,256,53.38,53.38,0,0,0,224,202.66Zm124.71-41a54,54,0,0,0-30.41-30.41c-21-8.29-71-6.43-94.3-6.43s-73.25-1.93-94.31,6.43a54,54,0,0,0-30.41,30.41c-8.28,21-6.43,71.05-6.43,94.33S91,329.26,99.32,350.33a54,54,0,0,0,30.41,30.41c21,8.29,71,6.43,94.31,6.43s73.24,1.93,94.3-6.43a54,54,0,0,0,30.41-30.41c8.35-21,6.43-71.05,6.43-94.33S357.1,182.74,348.75,161.67ZM224,338a82,82,0,1,1,82-82A81.9,81.9,0,0,1,224,338Zm85.38-148.3a19.14,19.14,0,1,1,19.13-19.14A19.1,19.1,0,0,1,309.42,189.74ZM400,32H48A48,48,0,0,0,0,80V432a48,48,0,0,0,48,48H400a48,48,0,0,0,48-48V80A48,48,0,0,0,400,32ZM382.88,322c-1.29,25.63-7.14,48.34-25.85,67s-41.4,24.63-67,25.85c-26.41,1.49-105.59,1.49-132,0-25.63-1.29-48.26-7.15-67-25.85s-24.63-41.42-25.85-67c-1.49-26.42-1.49-105.61,0-132,1.29-25.63,7.07-48.34,25.85-67s41.47-24.56,67-25.78c26.41-1.49,105.59-1.49,132,0,25.63,1.29,48.33,7.15,67,25.85s24.63,41.42,25.85,67.05C384.37,216.44,384.37,295.56,382.88,322Z"
     id="path1817"
     style="fill:#2b0000" />
  <path
     style="fill:#ff2a2a;stroke-width:0.899824"
     d="m 157.50318,414.34018 c -13.98307,-0.94469 -21.96528,-2.25995 -31.13411,-5.13006 -29.383407,-9.1979 -49.577266,-30.83951 -57.192717,-61.29302 -3.250262,-12.99751 -3.697219,-21.47315 -4.171129,-79.09726 -0.487186,-59.23846 0.282305,-85.25181 2.935538,-99.23852 6.858911,-36.15724 31.537107,-61.47243 67.426548,-69.16698 11.7519,-2.519562 21.72054,-2.968874 75.58524,-3.406822 86.38353,-0.702343 103.26978,0.821109 124.17575,11.202952 23.69951,11.76911 39.66421,33.6279 44.97093,61.574 2.65117,13.96149 3.37502,38.59956 2.90285,98.80485 -0.27952,35.6419 -0.847,60.82541 -1.47021,65.24548 -3.29474,23.36778 -10.67954,39.76248 -24.24945,53.83517 -13.56434,14.06692 -31.63457,22.49848 -55.44762,25.87181 -8.81555,1.2488 -127.91345,1.90762 -144.33162,0.7984 z M 301.8348,385.29155 c 12.38663,-2.1661 19.52142,-4.73198 26.92251,-9.68213 11.16379,-7.46681 18.60193,-17.77334 22.03092,-30.52682 3.90104,-14.50912 4.13633,-19.63154 4.13339,-89.98242 -0.003,-72.09899 -0.20725,-75.87817 -4.92107,-91.06758 -2.12237,-6.8389 -9.19267,-17.99289 -14.18244,-22.37397 -9.60514,-8.43342 -18.55897,-12.2963 -34.88314,-15.04934 -7.87931,-1.32884 -17.3343,-1.51855 -76.03515,-1.52563 -70.36963,-0.008 -75.48457,0.22635 -89.98242,4.13137 -17.52222,4.71964 -32.26929,18.91249 -37.304717,35.90272 -4.018692,13.55963 -4.293917,18.36251 -4.718084,82.33392 -0.425755,64.21071 0.08384,78.46954 3.337329,93.38017 3.210232,14.71241 10.417682,25.97724 21.682142,33.88797 7.34031,5.1549 12.95755,7.47069 22.99109,9.47841 13.38835,2.67904 23.47909,2.99449 88.04387,2.75244 54.11533,-0.20288 66.12135,-0.47618 72.88577,-1.65911 z"
     id="path1827" />
  <path
     style="fill:url(#linearGradient2522);stroke-width:0.899824;fill-opacity:1"
     d="m 214.88816,336.99454 c -18.05712,-2.24083 -33.66348,-9.6952 -47.00255,-22.45076 -25.30822,-24.20112 -32.36939,-61.139 -17.67987,-92.48561 13.66538,-29.16116 42.05097,-47.35484 73.79426,-47.29828 16.34098,0.0291 32.56512,4.95088 45.59706,13.83233 6.26221,4.26778 16.08072,13.91021 20.53529,20.16701 17.37425,24.4035 20.08579,56.74142 6.94623,82.84104 -8.60597,17.09437 -20.5372,28.95753 -37.9226,37.70624 -12.33843,6.20896 -30.61241,9.38262 -44.26782,7.68803 z m 19.72271,-28.42052 c 10.99764,-2.24438 19.17581,-6.66639 27.23629,-14.72686 5.17305,-5.17307 7.74203,-8.63699 10.20827,-13.76451 10.32979,-21.47654 6.39924,-45.3238 -10.20752,-61.93056 -16.66057,-16.66057 -40.35532,-20.52138 -62.08843,-10.11665 -9.28143,4.44348 -19.28056,14.44261 -23.72404,23.72404 -10.26527,21.44181 -6.50932,45.28975 9.70974,61.65075 13.51557,13.63385 30.51451,18.90889 48.86569,15.16379 z"
     id="path1829" />
  <path
     style="fill:#ffffff;stroke-width:0.899824"
     d="m 303.68648,188.07036 c -5.42686,-1.93323 -7.91596,-4.14546 -10.69032,-9.5012 -2.00979,-3.87978 -2.46181,-5.77528 -2.16583,-9.08216 0.87729,-9.80178 9.11933,-17.45543 18.65776,-17.32584 5.75183,0.0781 8.13933,1.1246 12.85674,5.6352 9.12427,8.72426 6.65886,23.50675 -4.87936,29.25649 -5.29196,2.6371 -8.55597,2.87813 -13.77899,1.01751 z"
     id="path1831" />
  <path
     style="fill:url(#linearGradient2434);stroke-width:0.9;fill-opacity:1;stroke-miterlimit:4;stroke-dasharray:none"
     d="M 35.655757,477.80516 C 24.065435,474.61906 11.114429,464.16714 5.9642757,453.84308 0.53917109,442.96784 0.86494509,455.60717 0.86494509,256 0.86494509,56.392827 0.53917109,69.032157 5.9642757,58.156923 9.250008,51.570301 19.570301,41.250008 26.156923,37.964276 37.032157,32.539171 24.392827,32.864945 224,32.864945 c 199.29829,0 186.80256,-0.317185 197.84349,5.021961 6.48498,3.135988 16.81073,13.504345 20.19223,20.27555 5.42496,10.863061 5.09933,-1.770124 5.09933,197.837544 0,199.60766 0.32563,186.97448 -5.09933,197.83755 -3.31985,6.64776 -13.64756,16.99126 -20.19264,20.22353 -10.93521,5.40031 1.74766,5.08024 -198.29299,5.00419 -149.293727,-0.0568 -184.372572,-0.292 -187.894333,-1.26011 z M 302.28471,414.36633 c 28.58373,-4.01973 48.72678,-14.95366 62.98773,-34.19063 9.08444,-12.25424 14.71666,-27.84508 17.25164,-47.75525 1.71075,-13.43645 1.71075,-139.40445 0,-152.8409 -6.16615,-48.42986 -34.08464,-76.42224 -81.79303,-82.00952 -12.66119,-1.48279 -113.93999,-2.173394 -137.31472,-0.936326 -33.88639,1.793379 -50.54415,7.116266 -67.961174,21.716596 -17.010329,14.25939 -26.690725,34.19136 -30.004832,61.78006 -1.66189,13.83461 -1.66189,137.90467 0,151.73928 2.544259,21.18 8.638078,37.37892 18.921893,50.2992 16.524973,20.76146 38.777393,30.85367 72.848373,33.0391 18.22919,1.16928 135.60733,0.48831 145.06412,-0.84161 z"
     id="path1833" />
  <path
     style="fill:#ffffff;stroke-width:0.899824"
     d="m 156.75612,385.54415 c -17.58266,-1.7749 -28.06138,-4.85065 -37.10885,-10.89233 -10.52667,-7.02943 -18.09112,-17.74253 -21.536306,-30.50064 -3.889194,-14.40234 -4.135569,-19.68071 -4.135569,-88.60109 0,-58.82645 0.168863,-66.7523 1.616753,-75.88514 2.768016,-17.45977 6.962252,-26.47932 16.862962,-36.26315 9.31425,-9.20431 19.50086,-13.60935 37.65782,-16.28454 11.04309,-1.62706 136.73105,-1.62706 147.77414,0 18.53852,2.73141 28.4831,7.10959 38.18459,16.81108 9.70148,9.70149 14.07967,19.64607 16.81109,38.18459 1.62705,11.04309 1.62705,136.73105 0,147.77414 -2.73142,18.53852 -7.10961,28.4831 -16.81109,38.18459 -9.31217,9.31218 -18.72063,13.61634 -36.48642,16.69177 -7.0955,1.22829 -131.65078,1.90913 -142.82912,0.78072 z m 75.99766,-47.72851 c 19.08929,-2.12859 34.61968,-9.32798 48.26043,-22.37204 44.72117,-42.76486 27.40643,-118.74264 -31.37403,-137.67053 -21.27177,-6.84972 -44.93763,-4.85126 -64.17427,5.4192 -35.45759,18.93082 -52.0508,60.06969 -39.69982,98.42612 9.76241,30.31754 37.41664,52.90178 68.78576,56.17493 3.95922,0.41312 7.7207,0.80499 8.35883,0.87082 0.63814,0.0659 5.06753,-0.31599 9.8431,-0.8485 z m 82.44764,-148.47596 c 5.41437,-1.50341 11.1333,-7.35439 12.80327,-13.09892 2.18214,-7.50627 0.58097,-13.70214 -4.97742,-19.26052 -16.4282,-16.4282 -41.98115,3.84676 -30.19504,23.95822 4.36888,7.45494 13.46878,10.8726 22.36919,8.40122 z"
     id="path1835" />
  <path
     style="fill:#ff2a2a;stroke-width:0.899824"
     d="m 215.31371,308.10454 c -19.17968,-3.20433 -36.02347,-18.17163 -41.92848,-37.25744 -2.68485,-8.6778 -2.68485,-21.0164 0,-29.6942 8.01216,-25.89639 34.95016,-42.3616 60.51284,-36.98702 20.9138,4.39715 37.5389,21.02225 41.93605,41.93605 7.34353,34.92746 -24.89412,67.95464 -60.52041,62.00261 z"
     id="path1837" />
  <path
     style="fill:#ff2a2a;stroke-width:0.899824"
     d="m 214.55185,307.59687 c -9.98448,-2.13141 -21.42631,-8.70131 -28.54538,-16.39076 -19.39578,-20.94975 -18.75345,-51.52224 1.50547,-71.65451 21.14894,-21.01674 51.93324,-21.02035 72.94502,-0.009 21.10446,21.10446 21.06636,51.7797 -0.0907,73.03412 -7.03621,7.06856 -17.30432,12.78385 -26.28751,14.63176 -4.61488,0.94931 -15.85143,1.17256 -19.52688,0.38795 z"
     id="path1839" />
  <path
     style="fill:#ffffff;stroke-width:0.899824"
     d="m 211.5452,306.77825 c -14.51572,-3.9054 -27.57768,-14.70405 -34.21047,-28.28264 -7.53115,-15.41771 -7.53019,-29.58182 0.003,-44.99122 2.85028,-5.83031 5.25804,-9.14715 10.12862,-13.95279 21.32607,-21.04176 51.95377,-21.04535 72.99055,-0.009 21.06143,21.06142 21.06143,51.8525 0,72.91393 -13.18623,13.18622 -32.31408,18.78682 -48.91176,14.32127 z"
     id="path1841" />
  <path
     style="fill:url(#linearGradient2452);stroke-width:0.9;opacity:0.55948553;stroke:url(#radialGradient2412);stroke-miterlimit:4;stroke-dasharray:none;fill-opacity:1"
     d="m 303.68648,188.07036 c -5.42686,-1.93323 -7.91596,-4.14546 -10.69032,-9.5012 -3.22843,-6.2323 -2.971,-11.50616 0.86445,-17.70985 6.33656,-10.24916 18.92046,-11.90143 27.86305,-3.65843 9.78824,9.02248 7.66455,23.91062 -4.25819,29.85197 -5.29196,2.6371 -8.55597,2.87813 -13.77899,1.01751 z"
     id="path1843" />
  <path
     style="opacity:0.70096463;fill:url(#linearGradient2444);stroke-width:0.809842;stroke-miterlimit:4;stroke-dasharray:none;fill-opacity:1"
     d="m 150.42778,413.36038 c -23.84098,-2.39877 -42.45727,-10.2496 -56.801959,-23.95443 -16.655139,-15.91223 -24.961897,-35.3143 -26.91932,-62.87539 -1.385957,-19.51468 -1.395378,-128.68353 -0.01234,-142.96641 1.880069,-19.41578 7.149718,-35.77639 15.373094,-47.72866 8.558043,-12.43869 24.105555,-24.78371 37.924685,-30.11293 19.36029,-7.466123 33.25227,-8.405534 115.91914,-7.838756 61.10195,0.418925 66.95146,0.723739 81.4341,4.243466 9.97264,2.42367 25.45461,10.38257 33.68052,17.31434 16.40892,13.82741 26.73342,34.28283 29.91591,59.27092 0.90475,7.10385 1.17155,26.21581 1.11031,79.53703 -0.0878,76.49707 -0.20152,78.49885 -5.39959,95.0718 -4.96907,15.84286 -14.86194,30.79765 -26.69609,40.35581 -7.67743,6.20086 -23.37989,13.80935 -34.41071,16.6734 -7.18411,1.86529 -12.4451,2.4969 -26.09491,3.13284 -21.53149,1.00313 -128.77331,0.90824 -139.02284,-0.12303 z M 306.9972,384.81656 c 23.64097,-5.20644 39.23046,-19.92782 44.93571,-42.43343 2.665,-10.51267 3.60585,-33.16937 3.60585,-86.83304 0,-55.04183 -0.93254,-76.41492 -3.79282,-86.92947 -5.68834,-20.91057 -20.07269,-35.01429 -41.21708,-40.41293 -12.88154,-3.28895 -26.35319,-3.75916 -94.86383,-3.31112 -69.01836,0.45136 -70.86543,0.56296 -84.51956,5.10677 -12.67313,4.21734 -24.31874,14.41399 -30.21011,26.45134 -7.533121,15.39178 -8.026584,21.40873 -8.214358,100.1598 -0.151859,63.68874 0.237283,72.61175 3.768865,86.4201 5.622853,21.98515 20.372833,36.28988 42.457863,41.17621 12.22241,2.70422 22.22129,3.00381 91.5644,2.74344 65.09491,-0.2444 68.29432,-0.33382 76.48507,-2.13767 z"
     id="path2436" />
  <path
     style="opacity:0.700965;fill:url(#linearGradient2536);stroke-width:0.809842;stroke-miterlimit:4;stroke-dasharray:none;fill-opacity:1"
     d="m 303.62186,188.29087 c -3.66664,-1.17619 -9.17533,-5.94206 -9.62373,-8.32602 -0.18617,-0.98981 -0.77937,-2.93954 -1.31822,-4.33274 -1.4745,-3.81234 -1.18757,-7.71716 0.88105,-11.99037 3.83161,-7.91506 11.49708,-12.03627 18.9991,-10.21456 2.13691,0.5189 4.65728,1.12345 5.60082,1.34344 0.94354,0.21999 2.70293,1.32209 3.90975,2.44913 3.6992,3.45462 5.01834,6.97738 4.81073,12.84703 -0.26786,7.57327 -3.06342,12.06821 -10.0536,16.16505 -5.59273,3.2778 -8.1591,3.67795 -13.2059,2.05904 z"
     id="path2460" />
</svg>
