<?xml version="1.0" encoding="UTF-8" standalone="no"?>
<svg
   xmlns:dc="http://purl.org/dc/elements/1.1/"
   xmlns:cc="http://creativecommons.org/ns#"
   xmlns:rdf="http://www.w3.org/1999/02/22-rdf-syntax-ns#"
   xmlns:svg="http://www.w3.org/2000/svg"
   xmlns="http://www.w3.org/2000/svg"
   xmlns:sodipodi="http://sodipodi.sourceforge.net/DTD/sodipodi-0.dtd"
   xmlns:inkscape="http://www.inkscape.org/namespaces/inkscape"
   viewBox="0 0 448 512"
   version="1.1"
   id="svg432"
   sodipodi:docname="youtube-square colour.svg"
   inkscape:version="1.0.1 (c497b03c, 2020-09-10)">
  <metadata
     id="metadata438">
    <rdf:RDF>
      <cc:Work
         rdf:about="">
        <dc:format>image/svg+xml</dc:format>
        <dc:type
           rdf:resource="http://purl.org/dc/dcmitype/StillImage" />
        <dc:title></dc:title>
      </cc:Work>
    </rdf:RDF>
  </metadata>
  <defs
     id="defs436" />
  <sodipodi:namedview
     pagecolor="#ffffff"
     bordercolor="#666666"
     borderopacity="1"
     objecttolerance="10"
     gridtolerance="10"
     guidetolerance="10"
     inkscape:pageopacity="0"
     inkscape:pageshadow="2"
     inkscape:window-width="1274"
     inkscape:window-height="910"
     id="namedview434"
     showgrid="false"
     inkscape:zoom="1.4355469"
     inkscape:cx="102.44354"
     inkscape:cy="256"
     inkscape:window-x="4"
     inkscape:window-y="26"
     inkscape:window-maximized="0"
     inkscape:current-layer="svg432" />
  <!-- Font Awesome Free 5.15.2 by @fontawesome - https://fontawesome.com License - https://fontawesome.com/license/free (Icons: CC BY 4.0, Fonts: SIL OFL 1.1, Code: MIT License) -->
  <path
     d="M186.8 202.1l95.2 54.1-95.2 54.1V202.1zM448 80v352c0 26.5-21.5 48-48 48H48c-26.5 0-48-21.5-48-48V80c0-26.5 21.5-48 48-48h352c26.5 0 48 21.5 48 48zm-42 176.3s0-59.6-7.6-88.2c-4.2-15.8-16.5-28.2-32.2-32.4C337.9 128 224 128 224 128s-113.9 0-142.2 7.7c-15.7 4.2-28 16.6-32.2 32.4-7.6 28.5-7.6 88.2-7.6 88.2s0 59.6 7.6 88.2c4.2 15.8 16.5 27.7 32.2 31.9C110.1 384 224 384 224 384s113.9 0 142.2-7.7c15.7-4.2 28-16.1 32.2-31.9 7.6-28.5 7.6-88.1 7.6-88.1z"
     id="path430"
     style="fill:#ffffff" />
  <path
     style="fill:none;stroke-width:0.696599"
     d="M 163.74422,382.72765 C 130.94149,381.7487 102.80673,379.76508 89.208163,377.47254 76.811382,375.38261 68.949454,371.5352 61.192483,363.76243 50.750991,353.29968 46.75522,338.46216 43.802775,299.18912 c -1.207863,-16.06684 -1.212106,-70.25081 -0.0067,-85.68164 3.271528,-41.88033 7.015138,-55.13761 18.705978,-66.24367 10.851127,-10.30834 20.208437,-13.04157 53.349977,-15.58329 29.31672,-2.24839 49.93233,-2.77793 108.14798,-2.77793 76.05684,0 116.03068,1.83384 138.27483,6.34351 18.21929,3.6937 31.48202,16.44979 36.13647,34.75604 9.74841,38.34116 9.14391,143.84049 -1.00765,175.85908 -4.32968,13.65605 -15.1899,24.7304 -28.63635,29.20096 -16.30967,5.42249 -71.23312,8.48763 -148.59859,8.2929 -21.26368,-0.0535 -46.6547,-0.33586 -56.42449,-0.62743 z m 71.0323,-99.16924 c 25.84981,-14.7055 47.07709,-27.00039 47.17174,-27.32199 0.14079,-0.47839 -22.50346,-13.48352 -91.14638,-52.34751 l -4.06991,-2.30428 v 54.37503 c 0,29.90627 0.2351,54.36626 0.52245,54.35552 0.28735,-0.0107 21.67229,-12.05127 47.5221,-26.75677 z"
     id="path440" />
  <path
     style="fill:#d40000;stroke-width:0.696599"
     d="m 187.42857,255.94888 v -52.99262 l 3.65714,2.08 c 2.01143,1.144 22.77878,12.93812 46.14966,26.20917 23.37089,13.27104 42.73039,24.36669 43.02111,24.657 0.45162,0.45096 -91.14757,53.03907 -92.38468,53.03907 -0.24377,0 -0.44323,-23.84669 -0.44323,-52.99262 z"
     id="path442" />
  <path
     style="fill:#ff2a2a;stroke-width:0.696599"
     d="M 163.74422,382.72765 C 130.94149,381.7487 102.80673,379.76508 89.208163,377.47254 76.811382,375.38261 68.949454,371.5352 61.192483,363.76243 50.750991,353.29968 46.75522,338.46216 43.802775,299.18912 c -1.207863,-16.06684 -1.212106,-70.25081 -0.0067,-85.68164 3.271528,-41.88033 7.015138,-55.13761 18.705978,-66.24367 10.851127,-10.30834 20.208437,-13.04157 53.349977,-15.58329 29.31672,-2.24839 49.93233,-2.77793 108.14798,-2.77793 76.05684,0 116.03068,1.83384 138.27483,6.34351 18.21929,3.6937 31.48202,16.44979 36.13647,34.75604 9.74841,38.34116 9.14391,143.84049 -1.00765,175.85908 -4.32968,13.65605 -15.1899,24.7304 -28.63635,29.20096 -16.30967,5.42249 -71.23312,8.48763 -148.59859,8.2929 -21.26368,-0.0535 -46.6547,-0.33586 -56.42449,-0.62743 z m 71.0323,-99.16924 c 25.84981,-14.7055 47.07709,-27.00039 47.17174,-27.32199 0.14079,-0.47839 -22.50346,-13.48352 -91.14638,-52.34751 l -4.06991,-2.30428 v 54.37503 c 0,29.90627 0.2351,54.36626 0.52245,54.35552 0.28735,-0.0107 21.67229,-12.05127 47.5221,-26.75677 z"
     id="path444" />
  <path
     style="fill:#ffffff;stroke-width:0.696599"
     d="m 187.89145,273.24082 c -0.5538,-42.01733 -0.59423,-69.48572 -0.10227,-69.48572 0.27555,0 74.59504,42.17745 89.06961,50.54837 l 2.70369,1.5636 -2.70369,1.70387 c -8.26128,5.20628 -87.52073,50.67396 -88.33505,50.67396 -0.094,0 -0.37854,-15.75184 -0.63229,-35.00408 z"
     id="path446" />
</svg>
