<?xml version="1.0" encoding="UTF-8" standalone="no"?>
<svg
   xmlns:dc="http://purl.org/dc/elements/1.1/"
   xmlns:cc="http://creativecommons.org/ns#"
   xmlns:rdf="http://www.w3.org/1999/02/22-rdf-syntax-ns#"
   xmlns:svg="http://www.w3.org/2000/svg"
   xmlns="http://www.w3.org/2000/svg"
   xmlns:sodipodi="http://sodipodi.sourceforge.net/DTD/sodipodi-0.dtd"
   xmlns:inkscape="http://www.inkscape.org/namespaces/inkscape"
   width="24"
   height="24"
   viewBox="0 0 24 24"
   version="1.1"
   id="svg145"
   sodipodi:docname="bx-water.svg"
   inkscape:version="1.0.1 (c497b03c, 2020-09-10)">
  <metadata
     id="metadata151">
    <rdf:RDF>
      <cc:Work
         rdf:about="">
        <dc:format>image/svg+xml</dc:format>
        <dc:type
           rdf:resource="http://purl.org/dc/dcmitype/StillImage" />
      </cc:Work>
    </rdf:RDF>
  </metadata>
  <defs
     id="defs149" />
  <sodipodi:namedview
     pagecolor="#ffffff"
     bordercolor="#666666"
     borderopacity="1"
     objecttolerance="10"
     gridtolerance="10"
     guidetolerance="10"
     inkscape:pageopacity="0"
     inkscape:pageshadow="2"
     inkscape:window-width="1194"
     inkscape:window-height="833"
     id="namedview147"
     showgrid="false"
     inkscape:zoom="30.625"
     inkscape:cx="12"
     inkscape:cy="12"
     inkscape:window-x="320"
     inkscape:window-y="207"
     inkscape:window-maximized="0"
     inkscape:current-layer="svg145" />
  <path
     d="M5.996 9c1.413 0 2.16-.747 2.705-1.293C9.191 7.217 9.432 7 9.993 7s.802.217 1.292.707C11.83 8.253 12.577 9 13.991 9c1.415 0 2.163-.747 2.71-1.293C17.192 7.217 17.433 7 17.996 7s.804.217 1.295.707C19.837 8.253 20.585 9 22 9V7c-.563 0-.804-.217-1.295-.707C20.159 5.747 19.411 5 17.996 5s-2.162.747-2.709 1.292C14.796 6.783 14.556 7 13.991 7c-.562 0-.802-.217-1.292-.707C12.154 5.747 11.407 5 9.993 5S7.832 5.747 7.287 6.293C6.797 6.783 6.557 7 5.996 7S5.195 6.783 4.705 6.293C4.16 5.747 3.413 5 2 5v2c.561 0 .801.217 1.291.707C3.836 8.253 4.583 9 5.996 9zM5.996 14c1.413 0 2.16-.747 2.705-1.293C9.191 12.217 9.432 12 9.993 12s.802.217 1.292.707C11.83 13.253 12.577 14 13.991 14c1.415 0 2.163-.747 2.71-1.293C17.192 12.217 17.433 12 17.996 12s.804.217 1.295.707C19.837 13.253 20.585 14 22 14v-2c-.563 0-.804-.217-1.295-.707C20.159 10.747 19.411 10 17.996 10s-2.162.747-2.709 1.292C14.796 11.783 14.556 12 13.991 12c-.562 0-.802-.217-1.292-.707C12.154 10.747 11.407 10 9.993 10s-2.161.747-2.706 1.293C6.797 11.783 6.557 12 5.996 12s-.801-.217-1.291-.707C4.16 10.747 3.413 10 2 10v2c.561 0 .801.217 1.291.707C3.836 13.253 4.583 14 5.996 14zM5.996 19c1.413 0 2.16-.747 2.705-1.293C9.191 17.217 9.432 17 9.993 17s.802.217 1.292.707C11.83 18.253 12.577 19 13.991 19c1.415 0 2.163-.747 2.71-1.293C17.192 17.217 17.433 17 17.996 17s.804.217 1.295.707C19.837 18.253 20.585 19 22 19v-2c-.563 0-.804-.217-1.295-.707C20.159 15.747 19.411 15 17.996 15s-2.162.747-2.709 1.292C14.796 16.783 14.556 17 13.991 17c-.562 0-.802-.217-1.292-.707C12.154 15.747 11.407 15 9.993 15s-2.161.747-2.706 1.293C6.797 16.783 6.557 17 5.996 17s-.801-.217-1.291-.707C4.16 15.747 3.413 15 2 15v2c.561 0 .801.217 1.291.707C3.836 18.253 4.583 19 5.996 19z"
     id="path143" />
  <path
     style="fill:#e6e6e6;stroke-width:0.0326531"
     d="M 5.6058184,8.9602593 C 5.0478116,8.9013303 4.4584054,8.66547 4.01473,8.3235595 3.8809142,8.2204368 3.5618535,7.9347437 3.3057062,7.6886859 2.8247995,7.2267219 2.5848556,7.0617227 2.3346939,7.020962 2.2628571,7.0092571 2.1636735,6.9921562 2.1142857,6.98296 L 2.0244897,6.96624 V 5.9892423 5.0122449 l 0.089796,1.927e-4 c 0.1802379,3.862e-4 0.726942,0.097211 0.9243202,0.163703 0.2862429,0.096428 0.665416,0.2931369 0.9038413,0.4688978 0.1120194,0.082578 0.4444024,0.376051 0.7386288,0.6521628 0.6942807,0.6515361 0.7683807,0.6905539 1.3114474,0.6905539 0.3768839,0 0.4011148,-0.00423 0.6081535,-0.1061544 C 6.7660033,6.8002109 6.9296216,6.666728 7.3020313,6.3094228 7.8743278,5.760338 8.1014612,5.5805787 8.4655269,5.3886019 9.3669949,4.9132453 10.544971,4.8965695 11.444898,5.3464251 c 0.366622,0.1832673 0.630289,0.3847325 1.144414,0.8744379 0.563259,0.5365046 0.730266,0.662483 0.974321,0.7349596 0.208679,0.061971 0.647729,0.061971 0.856407,0 0.242621,-0.07205 0.43438,-0.2143854 0.924273,-0.6860505 0.243893,-0.234818 0.535378,-0.4972077 0.647744,-0.5830882 0.659907,-0.5043612 1.518362,-0.7411531 2.3508,-0.6484326 0.431969,0.048115 0.720312,0.12866 1.090689,0.3046726 0.361171,0.1716371 0.679066,0.4158828 1.298512,0.9976746 0.547257,0.5139908 0.725524,0.6255893 1.045689,0.6546209 l 0.197763,0.017933 V 8.0065359 8.99992 L 21.836735,8.9827543 C 21.760408,8.9733133 21.612673,8.9565623 21.508434,8.9455298 21.063282,8.8984157 20.554276,8.6986286 20.124852,8.4024682 19.986172,8.3068248 19.679325,8.0438949 19.442969,7.8181792 18.740345,7.1471872 18.614472,7.0630039 18.222987,7.0022629 17.933444,6.9573388 17.626689,7.0000379 17.383223,7.1191546 17.26809,7.1754836 17.045777,7.35991 16.727,7.6635434 16.169035,8.1950018 15.826669,8.4612016 15.471333,8.6398609 14.568486,9.0938034 13.380105,9.0894449 12.494965,8.6289443 12.126542,8.4372696 11.920743,8.2767027 11.315433,7.7086596 10.958152,7.3733753 10.723063,7.179143 10.604065,7.1209228 10.236978,6.9413237 9.748207,6.9405844 9.3833825,7.1190763 9.2681136,7.1754721 9.0412059,7.3639945 8.7108333,7.6778524 8.4366096,7.9383684 8.1167347,8.224021 8,8.3126361 7.5253551,8.672946 6.9443298,8.8991396 6.3320454,8.9619716 5.969938,8.9991311 5.9739918,8.9991406 5.6058184,8.9602606 Z"
     id="path153" />
  <path
     style="fill:#000080;stroke-width:0.0326531"
     d="M 5.6653061,13.97042 C 5.0633442,13.898945 4.5448503,13.705122 4.0873566,13.380552 3.9737702,13.299968 3.6651987,13.028587 3.4016424,12.777484 3.138086,12.52638 2.8577088,12.275828 2.778582,12.2207 2.5848742,12.085745 2.3488513,12 2.1710783,12 H 2.0244898 v -0.998704 -0.998705 l 0.2530612,0.023 c 0.3517741,0.03197 0.8279015,0.157353 1.1146557,0.293532 0.3989241,0.189449 0.6679176,0.390674 1.1893765,0.889736 0.7576831,0.72514 0.9161226,0.808214 1.4983456,0.785619 0.4735458,-0.01838 0.604271,-0.09357 1.265971,-0.728175 0.2815686,-0.27004 0.6250791,-0.569193 0.763357,-0.664784 1.1299037,-0.7811019 2.6339362,-0.7810642 3.7656902,9.5e-5 0.138569,0.09564 0.48456,0.396117 0.768868,0.667721 0.345878,0.330422 0.584195,0.530307 0.720228,0.604081 0.201282,0.109161 0.207525,0.110257 0.627794,0.110257 0.420539,0 0.426388,-10e-4 0.628469,-0.110617 0.136586,-0.07407 0.379323,-0.277434 0.734694,-0.615523 0.721632,-0.686539 1.143431,-0.959015 1.729457,-1.117204 0.967762,-0.2612325 1.952278,-0.10343 2.777529,0.445196 0.12542,0.08338 0.433241,0.34833 0.684048,0.58878 0.250806,0.24045 0.528071,0.494143 0.616145,0.563761 C 21.356283,11.891496 21.632837,12 21.829796,12 h 0.145714 v 0.998704 0.998705 l -0.253061,-0.023 c -0.351774,-0.03197 -0.827901,-0.157353 -1.114656,-0.293532 -0.396272,-0.188189 -0.659407,-0.384693 -1.185938,-0.885633 -0.770211,-0.732777 -0.920496,-0.811842 -1.502193,-0.790309 -0.477941,0.01769 -0.57933,0.07383 -1.205826,0.6677 -0.593431,0.562525 -0.8301,0.747445 -1.203632,0.940448 -0.930237,0.480654 -2.059165,0.492603 -2.983176,0.03158 -0.416434,-0.207776 -0.635146,-0.378856 -1.315664,-1.029131 -0.297488,-0.284267 -0.491354,-0.442064 -0.621809,-0.506123 -0.17771,-0.08726 -0.215061,-0.09308 -0.5977183,-0.09308 -0.560478,0 -0.619198,0.03086 -1.3111262,0.689045 -0.7367957,0.700865 -1.1998573,0.999377 -1.8072411,1.165037 -0.3550678,0.09684 -0.8734514,0.139754 -1.2081633,0.100011 z"
     id="path155" />
  <path
     style="fill:#000080;stroke-width:0.0326531"
     d="M 21.645988,8.9453238 C 21.182161,8.8817966 20.950636,8.8142286 20.587755,8.6364911 20.202424,8.4477577 19.964121,8.2720558 19.477777,7.8181 18.717464,7.1084203 18.552702,7.0073637 18.111201,6.9799112 c -0.33613,-0.020901 -0.629366,0.049015 -0.854058,0.2036295 -0.0898,0.06179 -0.332245,0.2690865 -0.538776,0.4606581 -0.889789,0.8253424 -1.22749,1.0376484 -1.949405,1.2255534 -0.238283,0.062022 -0.370936,0.074704 -0.777125,0.074296 C 13.39404,8.9434472 13.074833,8.8744039 12.587981,8.640399 12.192187,8.4501603 12.013941,8.3171265 11.379592,7.7385167 11.110204,7.4927997 10.816327,7.2423201 10.726531,7.1818953 10.31444,6.9045946 9.6626606,6.9053291 9.2571429,7.1835511 9.1673469,7.2451593 8.9386975,7.4393697 8.7490325,7.6151299 8.0383288,8.2737309 7.8589861,8.4125913 7.4612245,8.6122449 6.5108225,9.0892921 5.381407,9.0741593 4.4502538,8.5719014 4.146604,8.4081149 3.9332694,8.2430076 3.477551,7.8190924 2.7619386,7.1534203 2.6220276,7.0585194 2.2569374,6.9911568 l -0.2161211,-0.039876 -0.00865,-0.9680366 -0.00865,-0.9680366 0.1719122,0.018155 c 0.355482,0.037542 0.8206398,0.1477316 1.0473942,0.2481134 0.5004617,0.2215491 0.6866034,0.3542997 1.3471229,0.960727 0.5772968,0.5300201 0.740326,0.6540174 0.9364752,0.7122675 0.1922103,0.05708 0.7299579,0.066462 0.9119638,0.015911 C 6.6298403,6.917207 6.9064748,6.7101712 7.3795918,6.2659778 7.9479628,5.7323537 8.1714635,5.5643511 8.5714286,5.3700891 9.0241456,5.1502057 9.3511318,5.071937 9.8938776,5.0535426 c 0.5225314,-0.017709 0.9013894,0.04668 1.3494294,0.2293443 0.458651,0.18699 0.65327,0.3312027 1.542741,1.14317 0.551583,0.5035215 0.661016,0.5581043 1.148125,0.5726586 0.597084,0.01784 0.679912,-0.025298 1.494398,-0.7783073 0.614121,-0.5677674 0.72276,-0.6486727 1.142858,-0.8511087 0.525515,-0.2532343 0.780811,-0.3083458 1.420408,-0.306628 0.57987,0.00156 0.792289,0.036734 1.203377,0.1992806 0.457286,0.1808134 0.818962,0.4403486 1.53948,1.104716 0.563311,0.5194118 0.684646,0.5904582 1.118367,0.6548474 l 0.122449,0.018178 v 0.9781122 c 0,0.5379617 -0.0037,0.97638 -0.0082,0.9742631 -0.0045,-0.00212 -0.149101,-0.023153 -0.321359,-0.046745 z"
     id="path157" />
  <path
     style="fill:#00ffff;stroke-width:0.0326531"
     d="M 5.6163265,18.96786 C 5.013718,18.893711 4.4280156,18.650081 3.9346939,18.268366 3.844898,18.198885 3.5470637,17.929184 3.27284,17.66903 2.7195271,17.144108 2.5455285,17.034094 2.2222533,17.004781 L 2.0244898,16.986848 V 15.993464 15.00008 l 0.1387755,0.01717 c 0.076326,0.0094 0.2240617,0.02619 0.3283004,0.03722 0.4452628,0.04713 0.9544771,0.247024 1.3833812,0.543062 0.1385691,0.09564 0.4845597,0.396117 0.7688678,0.667721 0.5809118,0.554952 0.7663443,0.675565 1.1239293,0.731046 0.230992,0.03584 0.5550511,0.0071 0.7481887,-0.06631 0.1632572,-0.06207 0.3930933,-0.243514 0.7657,-0.60448 0.2065306,-0.200079 0.4728764,-0.445295 0.5918798,-0.544926 0.6819657,-0.570945 1.5376072,-0.830289 2.4519175,-0.743172 0.87226,0.08311 1.41738,0.367834 2.269083,1.18518 0.72885,0.699448 0.87611,0.781845 1.397324,0.781845 0.512214,0 0.678052,-0.08996 1.340103,-0.726973 0.457388,-0.440088 0.698596,-0.63663 1.010917,-0.823718 0.869968,-0.521134 2.0952,-0.577585 3.041958,-0.140156 0.375884,0.173669 0.701813,0.419891 1.261997,0.953374 0.534746,0.509258 0.765998,0.670937 1.018494,0.712078 0.07184,0.0117 0.171021,0.02881 0.220408,0.038 l 0.0898,0.01672 v 0.976998 0.976997 l -0.0898,-1.96e-4 c -0.181312,-3.88e-4 -0.727504,-0.0974 -0.928195,-0.164854 -0.552577,-0.185737 -0.942078,-0.451684 -1.668693,-1.139368 -0.672996,-0.636935 -0.739009,-0.671092 -1.296989,-0.671092 -0.403061,0 -0.410749,0.0014 -0.614987,0.112133 -0.137061,0.07431 -0.368358,0.266115 -0.685715,0.568635 -0.785135,0.748428 -1.197471,1.01208 -1.854505,1.185792 -0.278907,0.07374 -0.390547,0.08546 -0.828467,0.08696 -0.413041,0.0014 -0.558288,-0.01121 -0.789771,-0.06867 -0.720381,-0.178811 -1.090041,-0.411303 -1.9413,-1.220949 -0.622275,-0.591855 -0.735375,-0.654762 -1.211937,-0.67408 -0.5654557,-0.02292 -0.713442,0.05307 -1.4120938,0.725063 -0.7372571,0.709131 -1.173966,0.985196 -1.816431,1.148257 -0.3167324,0.08039 -0.93669,0.127365 -1.2203037,0.09247 z"
     id="path159" />
  <path
     style="fill:#00ffff;stroke-width:0.0326531"
     d="m 21.684861,13.95534 c -0.303181,-0.03516 -0.77962,-0.160796 -1.030503,-0.271749 -0.32166,-0.142253 -0.696807,-0.416665 -1.193302,-0.872874 -0.829261,-0.761974 -0.914427,-0.810007 -1.436566,-0.810216 -0.574029,-2.28e-4 -0.649967,0.03902 -1.385429,0.716151 -0.262312,0.241506 -0.576447,0.513966 -0.69808,0.605468 -0.88814,0.668135 -2.15017,0.823844 -3.20945,0.395982 -0.45256,-0.182798 -0.688107,-0.358881 -1.630799,-1.219111 -0.472292,-0.430978 -0.570388,-0.47941 -0.999992,-0.49372 -0.4148909,-0.01382 -0.6471465,0.0328 -0.8356621,0.167742 -0.080323,0.0575 -0.3519537,0.293363 -0.6036235,0.524149 -0.5774756,0.529556 -0.8942358,0.767581 -1.265536,0.950971 C 6.912094,13.887099 6.6458942,13.94253 5.9918367,13.940503 5.3825179,13.938616 5.1771213,13.90043 4.693643,13.699158 4.3174761,13.542559 4.015502,13.321447 3.3829454,12.739435 2.724174,12.133303 2.5560697,12.026241 2.2305788,12.005515 l -0.206089,-0.01312 v -0.988103 -0.988104 l 0.155102,0.01429 c 0.2627585,0.02421 0.6656958,0.108975 0.922449,0.194048 0.4830953,0.160071 0.8308158,0.401374 1.5787445,1.09558 C 5.3435118,11.93523 5.4666808,12 5.9736891,12 c 0.5625365,0 0.6557225,-0.05011 1.448564,-0.778956 0.6086938,-0.559562 0.75211,-0.66648 1.1491755,-0.856725 0.5234906,-0.250818 0.7811516,-0.306398 1.4204081,-0.306398 0.6392403,0 0.8968863,0.05557 1.4204083,0.306383 0.399204,0.191251 0.568448,0.318962 1.257143,0.948643 0.355179,0.324744 0.604533,0.525738 0.731746,0.589831 0.182674,0.09203 0.214035,0.09718 0.587755,0.09651 0.552542,-10e-4 0.65678,-0.05694 1.407029,-0.755015 0.632091,-0.588135 1.000576,-0.844334 1.450604,-1.008574 0.752955,-0.2747948 1.690089,-0.2552395 2.421366,0.05053 0.455537,0.190473 0.648886,0.332666 1.432976,1.053847 0.573586,0.527566 0.747377,0.633967 1.068943,0.654443 l 0.205703,0.0131 v 0.992114 c 0,0.545663 -0.01102,0.990208 -0.02449,0.987878 -0.01347,-0.0023 -0.133241,-0.01685 -0.266159,-0.03226 z"
     id="path161" />
  <path
     style="fill:#00ffff;stroke-width:0.0326531"
     d="M 21.469388,8.8984513 C 21.079023,8.8273544 20.8543,8.7508104 20.514886,8.5733345 20.187672,8.402238 19.975053,8.2405803 19.453305,7.7661957 18.644815,7.0310993 18.564348,6.9877551 18.008163,6.9877551 c -0.373838,0 -0.401586,0.00476 -0.604081,0.1036726 C 17.282297,7.150914 17.073542,7.3013909 16.914286,7.444486 15.835019,8.4142312 15.607047,8.5745669 15.030285,8.7695262 14.627269,8.9057558 14.329903,8.9432281 13.834713,8.9201868 13.278485,8.894305 13.065531,8.8407069 12.587755,8.6063422 12.176183,8.4044529 12.022479,8.2878632 11.183673,7.5412992 10.926765,7.3126425 10.718751,7.1572913 10.579592,7.0901535 10.379527,6.9936312 10.345799,6.9877551 9.9918367,6.9877551 c -0.353552,0 -0.3879213,0.00597 -0.5877551,0.1020638 C 9.2497479,7.1640345 9.0403768,7.3278598 8.6367347,7.69024 7.9630903,8.2950217 7.8292402,8.3980431 7.4938776,8.5698681 6.9558008,8.8455553 6.4661241,8.9486968 5.8211474,8.9221992 5.32776,8.9019291 4.9888071,8.8137747 4.5425985,8.5896751 4.2148603,8.4250753 3.9533396,8.2246142 3.3469388,7.6731781 2.8107638,7.1856024 2.6133673,7.0559682 2.3014231,6.9865672 L 2.060837,6.9330419 2.0508266,5.9971332 C 2.045321,5.4823834 2.044922,5.0546699 2.04994,5.0466587 2.065349,5.0220587 2.5859133,5.1065377 2.8595492,5.1780453 3.1764537,5.2608603 3.5735714,5.4463042 3.8419731,5.6368129 3.9526093,5.7153413 4.2809864,5.9925805 4.5716999,6.2529 5.4143161,7.0074209 5.4317799,7.0160685 6.0778374,6.9986931 6.4730789,6.9880632 6.48963,6.9846642 6.6654057,6.8780264 6.7648846,6.8176755 7.065456,6.5706379 7.3333424,6.3290538 7.9594485,5.7644212 8.1358681,5.6280232 8.4699073,5.4503243 9.0365378,5.1488939 9.4484722,5.0602347 10.161346,5.0862816 c 0.947174,0.034608 1.3993,0.2584369 2.459062,1.2173792 0.742681,0.6720262 0.834191,0.7151235 1.477294,0.6957427 0.371667,-0.011201 0.393491,-0.015872 0.567826,-0.1215455 0.09972,-0.060443 0.447561,-0.3487608 0.772985,-0.6407052 0.652045,-0.584961 0.760575,-0.663416 1.216497,-0.8793881 0.496518,-0.2352029 0.639302,-0.2633285 1.336827,-0.2633285 0.659041,0 0.801564,0.024131 1.253331,0.2122016 0.415873,0.1731281 0.747183,0.4181538 1.614929,1.1943444 0.390786,0.3495547 0.579307,0.4600569 0.878739,0.5150741 0.208529,0.038315 0.220966,0.045647 0.231881,0.1367049 0.0063,0.05292 0.001,0.4819327 -0.01187,0.9533612 -0.02313,0.847488 -0.02418,0.8571129 -0.09317,0.8544712 -0.03837,-0.00147 -0.216706,-0.029433 -0.396298,-0.062142 z"
     id="path163" />
</svg>
