<?xml version="1.0" encoding="UTF-8" standalone="no"?>
<svg
   xmlns:dc="http://purl.org/dc/elements/1.1/"
   xmlns:cc="http://creativecommons.org/ns#"
   xmlns:rdf="http://www.w3.org/1999/02/22-rdf-syntax-ns#"
   xmlns:svg="http://www.w3.org/2000/svg"
   xmlns="http://www.w3.org/2000/svg"
   xmlns:sodipodi="http://sodipodi.sourceforge.net/DTD/sodipodi-0.dtd"
   xmlns:inkscape="http://www.inkscape.org/namespaces/inkscape"
   width="50mm"
   height="40mm"
   viewBox="0 0 50 40"
   version="1.1"
   id="svg2638"
   inkscape:version="0.92.4 (5da689c313, 2019-01-14)"
   sodipodi:docname="ctrlogob.svg">
  <defs
     id="defs2632">
    <marker
       inkscape:stockid="Arrow1Lstart"
       orient="auto"
       refY="0.0"
       refX="0.0"
       id="Arrow1Lstart"
       style="overflow:visible"
       inkscape:isstock="true">
      <path
         id="path1101"
         d="M 0.0,0.0 L 5.0,-5.0 L -12.5,0.0 L 5.0,5.0 L 0.0,0.0 z "
         style="fill-rule:evenodd;stroke:none;stroke-width:1pt;stroke-opacity:1;fill:#000000;fill-opacity:1"
         transform="scale(0.8) translate(12.5,0)" />
    </marker>
  </defs>
  <sodipodi:namedview
     id="base"
     pagecolor="#ffffff"
     bordercolor="#666666"
     borderopacity="1.0"
     inkscape:pageopacity="0.0"
     inkscape:pageshadow="2"
     inkscape:zoom="1.98"
     inkscape:cx="129.41916"
     inkscape:cy="88.236976"
     inkscape:document-units="mm"
     inkscape:current-layer="g1772-3-37-0-1"
     inkscape:document-rotation="0"
     showgrid="false"
     inkscape:window-width="1325"
     inkscape:window-height="900"
     inkscape:window-x="294"
     inkscape:window-y="70"
     inkscape:window-maximized="0" />
  <metadata
     id="metadata2635">
    <rdf:RDF>
      <cc:Work
         rdf:about="">
        <dc:format>image/svg+xml</dc:format>
        <dc:type
           rdf:resource="http://purl.org/dc/dcmitype/StillImage" />
        <dc:title></dc:title>
      </cc:Work>
    </rdf:RDF>
  </metadata>
  <g
     inkscape:label="Layer 1"
     inkscape:groupmode="layer"
     id="layer1"
     transform="translate(0,-105)">
    <g
       id="g1772-3-37-0-1"
       transform="matrix(-0.1887133,0,0,-0.20746527,922.16134,2999.3327)"
       style="fill:#000000">
      <path
         d="m 4737.752,13820.591 c -64.0923,-0.504 -101.4872,38.391 -101.4872,38.391 0,0 36.7778,39.482 100.8701,39.987 34.1307,0.268 67.1746,-19.725 90.6106,-38.48 -23.1378,-19.118 -55.8629,-39.629 -89.9935,-39.898 z m 110.9422,40.063 c 19.7842,17.321 31.6966,32.482 31.6966,32.482 l -19.4108,-0.153 c 0,0 -8.7011,-10.576 -23.0448,-23.646 -26.0907,20.008 -61.7738,39.828 -100.5115,39.523 -74.3473,-0.585 -110.2191,-49.949 -110.2191,-49.949 0,0 36.6445,-48.79 110.9918,-48.205 26.7439,0.211 51.8812,9.989 73.3639,22.742 9.6342,5.719 18.5335,12.037 26.513,18.357 14.5476,-12.841 23.4142,-23.28 23.4142,-23.28 l 19.4108,0.153 c 0,0 -12.1497,14.972 -32.2041,31.976"
         style="fill:#000000;fill-opacity:1;fill-rule:nonzero;stroke:#000000;stroke-width:0.54642129;stroke-miterlimit:4;stroke-dasharray:none;stroke-opacity:1"
         id="path1774-8-8-2-7"
         inkscape:connector-curvature="0"
         sodipodi:nodetypes="ccccccccccccscccc" />
    </g>
  </g>
</svg>
