<?xml version="1.0" encoding="UTF-8" standalone="no"?>
<svg
   xmlns:dc="http://purl.org/dc/elements/1.1/"
   xmlns:cc="http://creativecommons.org/ns#"
   xmlns:rdf="http://www.w3.org/1999/02/22-rdf-syntax-ns#"
   xmlns:svg="http://www.w3.org/2000/svg"
   xmlns="http://www.w3.org/2000/svg"
   xmlns:sodipodi="http://sodipodi.sourceforge.net/DTD/sodipodi-0.dtd"
   xmlns:inkscape="http://www.inkscape.org/namespaces/inkscape"
   width="14mm"
   height="14mm"
   viewBox="0 0 14 14"
   version="1.1"
   id="svg890"
   inkscape:version="1.0.1 (c497b03c, 2020-09-10)"
   sodipodi:docname="methodistlogo.svg">
  <defs
     id="defs884" />
  <sodipodi:namedview
     id="base"
     pagecolor="#ffffff"
     bordercolor="#666666"
     borderopacity="1.0"
     inkscape:pageopacity="0.0"
     inkscape:pageshadow="2"
     inkscape:zoom="4"
     inkscape:cx="82.011406"
     inkscape:cy="8.5714286"
     inkscape:document-units="mm"
     inkscape:current-layer="layer1"
     inkscape:document-rotation="0"
     showgrid="false"
     inkscape:window-width="1252"
     inkscape:window-height="755"
     inkscape:window-x="42"
     inkscape:window-y="23"
     inkscape:window-maximized="0" />
  <metadata
     id="metadata887">
    <rdf:RDF>
      <cc:Work
         rdf:about="">
        <dc:format>image/svg+xml</dc:format>
        <dc:type
           rdf:resource="http://purl.org/dc/dcmitype/StillImage" />
        <dc:title></dc:title>
      </cc:Work>
    </rdf:RDF>
  </metadata>
  <g
     inkscape:label="Layer 1"
     inkscape:groupmode="layer"
     id="layer1">
    <polyline
       fill-rule="evenodd"
       clip-rule="evenodd"
       fill="#b51929"
       points="580.668,10.11 581.854,33.202 558.647,31.911   559.134,29.392 559.887,26.918 560.901,24.508 562.16,22.193 563.663,20.004 565.362,17.97 567.239,16.115 569.317,14.461   571.524,13.045 573.867,11.896 575.147,11.369 576.473,10.924 577.136,10.727 578.507,10.374 579.19,10.24 579.896,10.11   580.604,9.998 580.668,10.11 "
       id="polyline869"
       transform="matrix(0.26458333,0,0,0.26458333,-147.60764,-2.4070468)" />
    <polyline
       fill-rule="evenodd"
       clip-rule="evenodd"
       fill="#b51929"
       points="608.079,25.217 608.367,25.856 608.632,26.518   608.875,27.161 609.097,27.822 609.297,28.504 609.473,29.19 609.629,29.875 609.78,30.583 609.892,31.291 610,31.994   586.634,33.211 587.981,9.998 590.543,10.486 593.04,11.258 595.469,12.272 597.766,13.532 599.953,15.012 601.962,16.693   603.817,18.568 605.477,20.623 606.89,22.852 608.079,25.217 "
       id="polyline871"
       transform="matrix(0.26458333,0,0,0.26458333,-147.60764,-2.4070468)" />
    <polyline
       fill="#b51929"
       points="580.492,61.133 580.446,61.176 577.753,60.689 575.104,59.872 572.54,58.747 570.087,57.331   567.813,55.677 565.692,53.775 563.816,51.68 562.181,49.381 560.833,46.927 559.797,44.366 559.62,43.879 559.465,43.372   559.31,42.865 559.177,42.356 559.047,41.849 558.911,41.341 558.802,40.81 558.715,40.279 558.626,39.751 558.56,39.22   581.819,37.983 "
       id="polyline873"
       transform="matrix(0.26458333,0,0,0.26458333,-147.60764,-2.4070468)" />
    <polyline
       fill-rule="evenodd"
       clip-rule="evenodd"
       fill="#b51929"
       points="609.981,39.284 609.759,40.81 609.427,42.309   608.985,43.768 608.478,45.184 607.86,46.575 607.176,47.899 606.401,49.227 605.562,50.485 604.637,51.701 603.661,52.872   602.36,54.219 600.968,55.431 599.534,56.56 598.008,57.576 596.438,58.458 594.806,59.229 593.105,59.895 591.38,60.447   589.617,60.891 587.804,61.197 586.59,38.028 609.981,39.284 "
       id="polyline875"
       transform="matrix(0.26458333,0,0,0.26458333,-147.60764,-2.4070468)" />
  </g>
</svg>
