<?xml version="1.0" encoding="utf-8"?>
<!-- Generator: Adobe Illustrator 15.0.1, SVG Export Plug-In . SVG Version: 6.00 Build 0)  -->
<!DOCTYPE svg PUBLIC "-//W3C//DTD SVG 1.1//EN" "http://www.w3.org/Graphics/SVG/1.1/DTD/svg11.dtd">
<svg version="1.1" id="Layer_1" xmlns="http://www.w3.org/2000/svg" xmlns:xlink="http://www.w3.org/1999/xlink" x="0px" y="0px"
	 width="620px" height="115.68px" viewBox="0 0 620 115.68" enable-background="new 0 0 620 115.68" xml:space="preserve">
<polyline fill="#B51929" points="27.039,105.08 27.039,68.029 38.863,68.029 38.863,63.481 10,63.481 10,68.029 21.824,68.029 
	21.824,105.08 27.039,105.08 "/>
<path fill="#B51929" d="M65.125,105.08v-17.95c0-3.397,0.242-6.305-1.637-9.339c-1.759-2.786-4.852-4.304-8.126-4.304
	c-4.792,0-7.641,2.366-9.579,6.487H45.6V63.481h-4.729v41.599H45.6V89.251c0-3.211,0.24-6.062,2.363-8.612
	c1.517-1.816,3.82-3.271,6.246-3.271c2.486,0,4.669,1.336,5.518,3.637c0.668,1.821,0.668,4.246,0.668,6.125v17.95H65.125"/>
<path fill-rule="evenodd" clip-rule="evenodd" fill="#B51929" d="M74.146,86.524c0.182-4.852,3.52-9.4,8.673-9.4
	c5.458,0,8.308,4.308,8.244,9.4H74.146 M91.309,95.741c-1.334,3.637-4.244,5.941-8.247,5.941c-3.216,0-6.427-1.759-7.885-4.666
	c-1.15-2.308-1.273-4.553-1.273-6.977H96.28c0.242-8.55-3.88-16.553-13.461-16.553c-9.215,0-14.249,7.702-14.249,16.19
	c0,8.609,4.789,16.005,14.127,16.005c5.881,0,11.28-3.392,13.099-9.031L91.309,95.741z"/>
<polyline fill="#B51929" points="150.408,71.182 150.652,71.182 150.652,105.08 160.352,105.08 160.352,63.481 145.131,63.481 
	137.492,88.404 130.215,63.481 114.996,63.481 114.996,105.08 123.183,105.08 123.183,71.182 123.303,71.182 133.43,105.08 
	140.1,105.08 150.408,71.182 "/>
<path fill-rule="evenodd" clip-rule="evenodd" fill="#B51929" d="M175.638,85.918c0.302-3.52,1.819-6.428,5.76-6.428
	c3.88,0,4.974,3.093,5.154,6.428H175.638 M195.466,91.193c0.062-4.184-0.607-8.552-3.152-12.066
	c-2.548-3.516-6.973-5.46-11.281-5.46c-9.58,0-14.975,7.338-14.975,16.436c0,9.156,6.002,15.58,15.221,15.58
	c10.428,0,14.004-9.094,14.004-10.61l-8.246-0.606c0,2.85-2.727,4.852-5.457,4.852c-3.882,0-5.942-2.973-5.942-6.611l0.06-1.513
	H195.466z"/>
<path fill="#B51929" d="M202.61,81.31v13.581c0,3.031,0,6.731,2.486,8.791c2.002,1.639,5.399,2,7.944,2
	c1.636,0,3.275-0.299,4.971-0.543l0.609-0.121v-6.731l-2.79,0.12c-4.304,0.181-4.304-1.271-4.304-4.848V81.31h6.607v-7.094h-6.607
	v-9.645l-7.762,0.606l-0.789,9.038h-5.397v7.094H202.61"/>
<path fill="#B51929" d="M249.902,85.491c0-2.971,0.182-6.061-1.696-8.488c-1.819-2.363-4.852-3.336-7.702-3.336
	c-3.333,0-6.85,1.76-8.002,4.852h-0.12V63.481h-8.914v41.599h8.914V88.465c0-1.818,0-3.761,0.785-5.398
	c0.729-1.514,2.608-2.304,4.247-2.304c3.879,0,3.578,5.034,3.578,7.702v16.614h8.911V85.491"/>
<path fill-rule="evenodd" clip-rule="evenodd" fill="#B51929" d="M269.359,79.552c2.062,0,3.516,0.788,4.242,2.788
	c0.852,2.303,0.971,5.213,0.971,7.638c0,3.7-0.242,9.765-5.276,9.765c-5.094,0-5.031-7.52-5.031-11.035
	S264.568,79.552,269.359,79.552 M269.297,73.667c-9.398,0-14.614,6.973-14.614,15.947c0,8.915,5.156,16.068,14.614,16.068
	c9.096,0,14.857-6.973,14.857-15.763C284.154,80.825,278.94,73.667,269.297,73.667z"/>
<path fill-rule="evenodd" clip-rule="evenodd" fill="#B51929" d="M306.579,92.223c0,1.518-0.063,3.156-0.79,4.548
	c-0.727,1.395-2.244,2.487-3.879,2.487c-4.427,0-4.912-5.639-4.912-8.975c0-3.701,0.182-10.371,5.276-10.371
	c4.063,0,4.305,5.096,4.305,8.064V92.223 M315.492,105.08V63.481h-8.914v14.066c-1.941-2.847-4.245-3.881-7.702-3.881
	c-8.974,0-11.277,9.035-11.277,16.373c0,7.156,2.426,15.643,11.095,15.643c3.941,0,6.489-2.121,8.186-5.395h0.122v4.792H315.492z"/>
<path fill-rule="evenodd" clip-rule="evenodd" fill="#B51929" d="M330.762,62.876h-8.914v8.609h8.914V62.876z M330.762,74.275
	h-8.914v30.805h8.914V74.275z"/>
<path fill="#B51929" d="M361.371,81.735c-2.122-5.762-6.063-8.068-12.128-8.068c-6.548,0-13.156,2.729-13.156,10.312
	c0,3.879,2.426,7.032,6.062,8.306c1.942,0.668,7.036,1.578,9.157,1.816c1.636,0.186,3.456,0.55,3.456,2.608
	c0,2.305-3.698,2.911-5.397,2.911c-2.848,0-6.181-0.969-6.789-4.122l-7.7,1.091c1.637,6.912,7.637,9.094,14.067,9.094
	c3.396,0,6.791-0.603,9.581-2.544c2.606-1.88,4.121-4.731,4.121-7.944c0-13.884-18.495-7.337-18.495-13.099
	c0-2.242,2.792-2.727,4.609-2.727c2.912,0,5.213,1.212,6.003,4.121L361.371,81.735"/>
<path fill="#B51929" d="M369.929,81.31v13.581c0,3.031,0,6.731,2.484,8.791c2.002,1.639,5.399,2,7.942,2
	c1.64,0,3.274-0.299,4.974-0.543l0.607-0.121v-6.731l-2.789,0.12c-4.305,0.181-4.305-1.271-4.305-4.848V81.31h6.606v-7.094h-6.606
	v-9.645l-7.764,0.606l-0.786,9.038h-5.398v7.094H369.929"/>
<path fill="#B51929" d="M432.919,91.069c-1.333,5.459-4.305,10.249-10.669,10.249c-4.37,0-7.582-2.97-9.281-6.668
	c-1.395-3.034-1.938-7.097-1.938-10.368c0-7.215,2.426-17.041,11.459-17.041c6.186,0,8.792,4.549,10.248,9.826l4.911-0.914
	c-1.696-7.637-6.608-13.276-14.977-13.276c-12.066,0-17.341,10.246-17.341,20.979c0,10.244,4.911,21.826,16.919,21.826
	c8.79,0,13.458-5.697,15.398-13.583L432.919,91.069"/>
<path fill="#B51929" d="M465.839,105.08v-17.95c0-3.397,0.242-6.305-1.636-9.339c-1.762-2.786-4.852-4.304-8.128-4.304
	c-4.787,0-7.638,2.366-9.579,6.487h-0.183V63.481h-4.728v41.599h4.728V89.251c0-3.211,0.242-6.062,2.366-8.612
	c1.516-1.816,3.821-3.271,6.247-3.271c2.484,0,4.666,1.336,5.518,3.637c0.666,1.821,0.666,4.246,0.666,6.125v17.95H465.839"/>
<path fill="#B51929" d="M495.419,105.08V74.275h-4.731v16.371c0,2.913-0.483,5.46-2.363,7.761c-1.636,2.001-3.82,3.153-6.364,3.153
	c-1.943,0-4.064-1.211-4.975-2.909c-0.908-1.576-1.031-3.88-1.031-5.639V74.275h-4.729v18.737c0,3.15,0.363,6.669,2.426,9.217
	c1.938,2.365,4.852,3.453,7.884,3.453c4.242,0,7.938-2.908,9.457-6.73h0.122v6.128H495.419"/>
<path fill="#B51929" d="M501.108,74.275v30.805h4.729V89.555c0-2.426,0.24-4.363,1.518-6.607c1.756-3.095,4.303-4.852,7.943-4.852
	h0.967v-4.551l-1.756-0.119c-4.975,0-7.582,3.883-9.035,8.063h-0.121v-7.215H501.108"/>
<path fill="#B51929" d="M536.997,94.1c-0.789,4.187-3.031,7.522-7.641,7.522c-6.428,0-7.943-7.276-7.943-12.251
	c0-5.151,1.818-11.883,8.246-11.883c4.426,0,6.91,3.395,7.338,7.458l4.365-0.785c-1.031-6.371-5.154-10.675-11.824-10.675
	c-9.156,0-13.16,8.186-13.16,16.19c0,8.065,3.943,16.005,13.1,16.005c6.608,0,10.795-4.545,11.885-10.791L536.997,94.1"/>
<path fill="#B51929" d="M568.897,105.08v-17.95c0-3.397,0.24-6.305-1.639-9.339c-1.76-2.786-4.852-4.304-8.125-4.304
	c-4.791,0-7.643,2.366-9.58,6.487h-0.184V63.481h-4.729v41.599h4.729V89.251c0-3.211,0.242-6.062,2.363-8.612
	c1.518-1.816,3.821-3.271,6.246-3.271c2.485,0,4.672,1.336,5.518,3.637c0.667,1.821,0.667,4.246,0.667,6.125v17.95H568.897"/>
<polyline fill-rule="evenodd" clip-rule="evenodd" fill="#B51929" points="580.668,10.11 581.854,33.202 558.647,31.911 
	559.134,29.392 559.887,26.918 560.901,24.508 562.16,22.193 563.663,20.004 565.362,17.97 567.239,16.115 569.317,14.461 
	571.524,13.045 573.867,11.896 575.147,11.369 576.473,10.924 577.136,10.727 578.507,10.374 579.19,10.24 579.896,10.11 
	580.604,9.998 580.668,10.11 "/>
<polyline fill-rule="evenodd" clip-rule="evenodd" fill="#B51929" points="608.079,25.217 608.367,25.856 608.632,26.518 
	608.875,27.161 609.097,27.822 609.297,28.504 609.473,29.19 609.629,29.875 609.78,30.583 609.892,31.291 610,31.994 
	586.634,33.211 587.981,9.998 590.543,10.486 593.04,11.258 595.469,12.272 597.766,13.532 599.953,15.012 601.962,16.693 
	603.817,18.568 605.477,20.623 606.89,22.852 608.079,25.217 "/>
<polyline fill="#B51929" points="580.492,61.133 580.446,61.176 577.753,60.689 575.104,59.872 572.54,58.747 570.087,57.331 
	567.813,55.677 565.692,53.775 563.816,51.68 562.181,49.381 560.833,46.927 559.797,44.366 559.62,43.879 559.465,43.372 
	559.31,42.865 559.177,42.356 559.047,41.849 558.911,41.341 558.802,40.81 558.715,40.279 558.626,39.751 558.56,39.22 
	581.819,37.983 "/>
<polyline fill-rule="evenodd" clip-rule="evenodd" fill="#B51929" points="609.981,39.284 609.759,40.81 609.427,42.309 
	608.985,43.768 608.478,45.184 607.86,46.575 607.176,47.899 606.401,49.227 605.562,50.485 604.637,51.701 603.661,52.872 
	602.36,54.219 600.968,55.431 599.534,56.56 598.008,57.576 596.438,58.458 594.806,59.229 593.105,59.895 591.38,60.447 
	589.617,60.891 587.804,61.197 586.59,38.028 609.981,39.284 "/>
</svg>
