<?xml version="1.0" encoding="UTF-8" standalone="no"?>
<svg
   xmlns:dc="http://purl.org/dc/elements/1.1/"
   xmlns:cc="http://creativecommons.org/ns#"
   xmlns:rdf="http://www.w3.org/1999/02/22-rdf-syntax-ns#"
   xmlns:svg="http://www.w3.org/2000/svg"
   xmlns="http://www.w3.org/2000/svg"
   xmlns:sodipodi="http://sodipodi.sourceforge.net/DTD/sodipodi-0.dtd"
   xmlns:inkscape="http://www.inkscape.org/namespaces/inkscape"
   width="140mm"
   height="110mm"
   viewBox="0 0 140 110"
   version="1.1"
   id="svg2638"
   inkscape:version="1.0.1 (c497b03c, 2020-09-10)"
   sodipodi:docname="ctrhero2.svg">
  <defs
     id="defs2632" />
  <sodipodi:namedview
     id="base"
     pagecolor="#ffffff"
     bordercolor="#666666"
     borderopacity="1.0"
     inkscape:pageopacity="0.0"
     inkscape:pageshadow="2"
     inkscape:zoom="0.98994949"
     inkscape:cx="30.497274"
     inkscape:cy="196.34508"
     inkscape:document-units="mm"
     inkscape:current-layer="layer1"
     inkscape:document-rotation="0"
     showgrid="false"
     inkscape:window-width="1259"
     inkscape:window-height="755"
     inkscape:window-x="21"
     inkscape:window-y="23"
     inkscape:window-maximized="0" />
  <metadata
     id="metadata2635">
    <rdf:RDF>
      <cc:Work
         rdf:about="">
        <dc:format>image/svg+xml</dc:format>
        <dc:type
           rdf:resource="http://purl.org/dc/dcmitype/StillImage" />
        <dc:title></dc:title>
      </cc:Work>
    </rdf:RDF>
  </metadata>
  <g
     inkscape:label="Layer 1"
     inkscape:groupmode="layer"
     id="layer1"
     transform="translate(0,-20)">
    <g
       id="g1772-3-37-0-1"
       transform="matrix(-0.1887133,0,0,-0.20746527,965.72627,2959.5094)"
       style="fill:#ffffff">
      <path
         d="m 4736.5062,13819.828 c -59.2794,-0.466 -93.8662,35.508 -93.8662,35.508 0,0 34.0161,36.517 93.2955,36.984 31.5678,0.248 62.1303,-18.244 83.8065,-35.59 -21.4004,-17.682 -51.6681,-36.653 -83.2358,-36.902 z m 102.6114,37.055 c 18.2985,16.02 29.3164,30.042 29.3164,30.042 l -17.9532,-0.141 c 0,0 -8.0477,-9.782 -21.3143,-21.87 -24.1315,18.505 -57.1351,36.837 -92.9639,36.554 -68.7644,-0.541 -101.9425,-46.198 -101.9425,-46.198 0,0 33.8928,-45.126 102.6572,-44.585 35.8287,0.282 68.5398,19.131 92.3769,38.013 13.4552,-11.877 21.6559,-21.532 21.6559,-21.532 l 17.9533,0.141 c 0,0 -11.2373,13.848 -29.7858,29.576"
         style="fill:#ffffff;fill-opacity:1;fill-rule:nonzero;stroke:none;stroke-width:0.0254622"
         id="path1774-8-8-2-7"
         inkscape:connector-curvature="0" />
    </g>
  </g>
</svg>
